<?xml version="1.0" standalone="no"?>
<!DOCTYPE svg PUBLIC "-//W3C//DTD SVG 20010904//EN"
 "http://www.w3.org/TR/2001/REC-SVG-20010904/DTD/svg10.dtd">
<svg version="1.0" xmlns="http://www.w3.org/2000/svg"
 width="512.000000pt" height="512.000000pt" viewBox="0 0 512.000000 512.000000"
 preserveAspectRatio="xMidYMid meet">
<metadata>
Created by potrace 1.14, written by Peter Selinger 2001-2017
</metadata>
<g transform="translate(0.000000,512.000000) scale(0.100000,-0.100000)"
fill="#000000" stroke="none">
<path d="M2550 4312 c-41 -13 -81 -26 -89 -28 -12 -4 -13 -58 -7 -359 l6 -355
-275 0 -275 0 0 -60 0 -60 50 0 50 0 0 -875 c0 -802 1 -875 16 -875 9 0 56
-14 104 -30 84 -29 120 -31 120 -6 1 6 0 410 0 899 l-1 887 107 0 107 0 -7
-1290 c-7 -1074 -6 -1291 6 -1294 7 -2 52 -15 99 -30 94 -29 129 -32 130 -13
0 6 0 441 -1 965 -1 523 3 952 7 952 5 0 45 -58 88 -130 l80 -130 109 0 c82 0
107 3 103 13 -3 6 -91 151 -196 322 l-191 309 0 163 0 163 100 0 100 0 0 60 0
60 -97 0 -98 0 0 373 c0 204 -2 378 -4 385 -5 18 -56 12 -141 -16z"/>
<path d="M3305 4125 c-33 -13 -77 -26 -97 -30 l-38 -7 6 -666 c3 -367 2 -729
-3 -804 l-8 -138 376 0 376 0 7 280 c4 154 4 285 1 291 -10 15 -55 7 -140 -24
l-70 -26 -5 -196 c-4 -159 -8 -198 -20 -206 -18 -12 -260 -1 -275 13 -11 9
-14 1021 -5 1346 6 213 7 211 -105 167z"/>
<path d="M1522 3878 c-46 -16 -133 -36 -193 -46 l-109 -17 0 -46 0 -47 89 -4
c49 -1 92 -5 95 -8 3 -3 7 -37 8 -75 l3 -70 -292 -3 -293 -2 0 -55 0 -55 296
0 297 0 -5 -485 -4 -485 223 0 223 0 0 49 0 49 -95 4 c-57 2 -100 9 -107 16
-10 10 -14 113 -16 432 l-4 420 61 0 61 0 0 55 0 55 -56 0 -57 0 5 161 c4 131
3 163 -9 175 -18 18 -20 17 -121 -18z"/>
</g>
</svg>
